name C:\Users\u0150099\Documents\master_thesis\3dpredictsim\Results\debug\Fal_s1_mtj_sc_cspx10_oy_MTPm_k1_d01_MTJm_nl_MG_exp_table_d01_PF_Gefen2002_ls146_PIM_w2e+04_w1e+05_ig21.mot
datacolumns 128
datarows 4
range 0.98336879 1.01286985
endheader
time	pelvis_tilt	pelvis_list	pelvis_rotation	pelvis_tx	pelvis_ty	pelvis_tz	hip_flexion_l	hip_adduction_l	hip_rotation_l	hip_flexion_r	hip_adduction_r	hip_rotation_r	knee_angle_l	knee_angle_r	ankle_angle_l	ankle_angle_r	subtalar_angle_l	subtalar_angle_r	mtj_angle_l	mtj_angle_r	mtp_angle_l	mtp_angle_r	lumbar_extension	lumbar_bending	lumbar_rotation	arm_flex_l	arm_add_l	arm_rot_l	arm_flex_r	arm_add_r	arm_rot_r	elbow_flex_l	elbow_flex_r	pro_sup_l	pro_sup_r	glut_med1_l/activation	glut_med2_l/activation	glut_med3_l/activation	glut_min1_l/activation	glut_min2_l/activation	glut_min3_l/activation	semimem_l/activation	semiten_l/activation	bifemlh_l/activation	bifemsh_l/activation	sar_l/activation	add_long_l/activation	add_brev_l/activation	add_mag1_l/activation	add_mag2_l/activation	add_mag3_l/activation	tfl_l/activation	pect_l/activation	grac_l/activation	glut_max1_l/activation	glut_max2_l/activation	glut_max3_l/activation	iliacus_l/activation	psoas_l/activation	quad_fem_l/activation	gem_l/activation	peri_l/activation	rect_fem_l/activation	vas_med_l/activation	vas_int_l/activation	vas_lat_l/activation	med_gas_l/activation	lat_gas_l/activation	soleus_l/activation	tib_post_l/activation	flex_dig_l/activation	flex_hal_l/activation	tib_ant_l/activation	per_brev_l/activation	per_long_l/activation	per_tert_l/activation	ext_dig_l/activation	ext_hal_l/activation	ercspn_l/activation	intobl_l/activation	extobl_l/activation	glut_med1_r/activation	glut_med2_r/activation	glut_med3_r/activation	glut_min1_r/activation	glut_min2_r/activation	glut_min3_r/activation	semimem_r/activation	semiten_r/activation	bifemlh_r/activation	bifemsh_r/activation	sar_r/activation	add_long_r/activation	add_brev_r/activation	add_mag1_r/activation	add_mag2_r/activation	add_mag3_r/activation	tfl_r/activation	pect_r/activation	grac_r/activation	glut_max1_r/activation	glut_max2_r/activation	glut_max3_r/activation	iliacus_r/activation	psoas_r/activation	quad_fem_r/activation	gem_r/activation	peri_r/activation	rect_fem_r/activation	vas_med_r/activation	vas_int_r/activation	vas_lat_r/activation	med_gas_r/activation	lat_gas_r/activation	soleus_r/activation	tib_post_r/activation	flex_dig_r/activation	flex_hal_r/activation	tib_ant_r/activation	per_brev_r/activation	per_long_r/activation	per_tert_r/activation	ext_dig_r/activation	ext_hal_r/activation	ercspn_r/activation	intobl_r/activation	extobl_r/activation	
          0.98336879	         -2.92890928	         -1.67827280	          3.67358199	          1.30788048	          0.91572359	         -0.00196537	        -14.71938231	          1.66808324	          7.58203105	         28.56157200	          4.40493529	          1.19880583	        -15.68195324	        -20.93553094	          3.25468082	          3.26484543	         -3.19602375	         -4.51929536	        -10.63047329	        -13.52672830	         35.29241740	          3.20404540	         -1.51354971	          0.30350809	         -1.18515492	          3.27873486	        -13.74056196	         19.34265680	         -6.60060635	        -13.54685760	          5.74700590	         27.40905449	         25.46805129	         86.51662706	         86.51662706	          0.32833335	          0.05000011	          0.05000003	          0.48429184	          0.13510710	          0.05000016	          0.05000142	          0.05000015	          0.05000010	          0.05000028	          0.05341351	          0.10989081	          0.05000031	          0.05000039	          0.05000114	          0.05000050	          0.30430367	          0.05793199	          0.05000027	          0.05000097	          0.05000057	          0.05000047	          0.42250732	          0.68803896	          0.05000004	          0.05000019	          0.05000007	          0.42299359	          0.22814216	          0.23398487	          0.19997304	          0.33802877	          0.49446888	          0.14392967	          0.44694532	          0.22328977	          0.46114774	          0.05000001	          0.05294293	          0.28397365	          0.05000010	          0.05000002	          0.05000031	          0.05000001	          0.05000002	          0.05000003	          0.17822988	          0.05000095	          0.05000084	          0.05000158	          0.05000158	          0.05000156	          0.07883359	          0.07883333	          0.49746563	          0.05416781	          0.05877552	          0.11463428	          0.17790529	          0.15664557	          0.13809176	          0.19698674	          0.05000156	          0.05002599	          0.08452060	          0.05000551	          0.08929389	          0.15948630	          0.08756678	          0.08736307	          0.19606314	          0.05002013	          0.05000127	          0.05000016	          0.05000038	          0.05000025	          0.05000018	          0.06245295	          0.06081120	          0.05000005	          0.16648520	          0.08768714	          0.06773264	          0.09801375	          0.15392279	          0.07883350	          0.32679144	          0.77471319	          0.12167730	          0.06236158	          0.09444641	          0.15662966	
          0.99320247	         -2.92445894	         -1.75595073	          3.93429236	          1.32351187	          0.91465539	         -0.00173397	        -15.20758174	          1.34465668	          7.36886174	         28.42427978	          4.62924179	          1.23954695	        -16.14393952	        -20.68218530	          2.22527024	          3.15108158	         -2.52710482	         -4.90872764	        -11.87007145	        -14.01109665	         38.22152831	          2.92749604	         -1.34403758	          0.46971891	         -1.23750070	          3.07986658	        -13.69900301	         19.38502056	         -7.28938456	        -13.49526982	          5.22755340	         28.13261240	         24.99234981	         86.51662706	         86.51662706	          0.28209894	          0.05000009	          0.05000003	          0.41609600	          0.11608195	          0.05000021	          0.05000166	          0.05000013	          0.05000010	          0.05000017	          0.05000201	          0.13297234	          0.05000509	          0.05000075	          0.05000231	          0.05000802	          0.26145310	          0.06507890	          0.05000028	          0.05000083	          0.05000052	          0.05000051	          0.36301164	          0.72627990	          0.05000004	          0.05000020	          0.05000009	          0.36342946	          0.19602241	          0.20327195	          0.19597166	          0.29042898	          0.42483987	          0.12366210	          0.38400842	          0.19184711	          0.39621097	          0.05000000	          0.05819423	          0.24398567	          0.05000005	          0.05000001	          0.05000023	          0.05000001	          0.05000007	          0.05000003	          0.25074683	          0.05000093	          0.05001123	          0.05000039	          0.05000062	          0.05000088	          0.06773264	          0.06773257	          0.49651330	          0.06773236	          0.05049926	          0.10290134	          0.16713368	          0.23528694	          0.19042814	          0.22272171	          0.05000069	          0.05000880	          0.07261932	          0.05819163	          0.11748000	          0.18723883	          0.07523611	          0.07506120	          0.26412743	          0.05000109	          0.05000018	          0.05000006	          0.05000074	          0.05000725	          0.05000127	          0.05819451	          0.05224809	          0.05000077	          0.15908619	          0.07533941	          0.05819483	          0.10402556	          0.13224835	          0.06773257	          0.46859585	          0.80108854	          0.21760150	          0.06773269	          0.08114688	          0.13457374	
          1.00303616	         -2.91612438	         -1.83225800	          4.19059451	          1.33942068	          0.91345662	         -0.00148182	        -15.56823896	          1.01414073	          7.13418280	         28.24603637	          4.88178383	          1.29221866	        -16.81784324	        -21.02852163	          0.96166723	          3.25394883	         -1.81191357	         -5.37730562	        -12.98465582	        -14.15706801	         41.24863509	          2.85150046	         -1.15568849	          0.63869073	         -1.28464437	          2.81355129	        -13.65353424	         19.31814446	         -8.00613322	        -13.46201569	          4.90591750	         28.87924415	         24.51197102	         86.51662706	         86.51662706	          0.24237500	          0.05000011	          0.05000003	          0.35750315	          0.09973584	          0.05000019	          0.05000049	          0.05000006	          0.05000007	          0.05000005	          0.05000213	          0.13979020	          0.11637824	          0.05000077	          0.05000224	          0.05000074	          0.22463649	          0.07532288	          0.05000016	          0.05000119	          0.05000072	          0.05000064	          0.31189387	          0.64620782	          0.05000006	          0.05000017	          0.05000007	          0.31225285	          0.16841939	          0.17464808	          0.16837578	          0.24953198	          0.36501571	          0.10624852	          0.32993397	          0.16483203	          0.34041824	          0.05000010	          0.05000001	          0.20962864	          0.05000006	          0.05000006	          0.05000018	          0.05000001	          0.05000014	          0.05000002	          0.30790784	          0.05000010	          0.05000008	          0.05819454	          0.05000232	          0.05000054	          0.05819483	          0.05819479	          0.43023735	          0.05819469	          0.06415596	          0.10290524	          0.22796083	          0.20215631	          0.16361388	          0.24296556	          0.05000048	          0.06809985	          0.06239354	          0.05000015	          0.16579681	          0.22278674	          0.07883337	          0.07313199	          0.29925728	          0.09177211	          0.05819548	          0.05747940	          0.11841657	          0.12620547	          0.11073626	          0.05000000	          0.05000000	          0.05000000	          0.22373430	          0.06473044	          0.05000010	          0.17840279	          0.11362570	          0.05819475	          0.40261023	          0.81984338	          0.40983094	          0.06419707	          0.06972012	          0.11562364	
          1.01286985	         -2.90420196	         -1.91494872	          4.44077658	          1.35553821	          0.91211028	         -0.00121919	        -15.77979042	          0.67605577	          6.88511261	         27.99092709	          5.15612377	          1.36797480	        -17.73644484	        -22.05741049	         -0.51280525	          3.77237508	         -1.07085629	         -5.93125056	        -13.97089247	        -13.77175619	         44.29904742	          2.96550797	         -0.95318103	          0.81787055	         -1.32526026	          2.49054094	        -13.61766621	         19.21278669	         -8.73871295	        -13.44978256	          4.76976675	         29.66249710	         24.02628582	         86.51662706	         86.51662706	          0.20824479	          0.05000060	          0.05000119	          0.30716109	          0.08569151	          0.05819448	          0.05002095	          0.05911191	          0.07395643	          0.05000151	          0.05000972	          0.21600916	          0.20120817	          0.23338570	          0.05001587	          0.14102233	          0.19300421	          0.06471691	          0.05005767	          0.05000175	          0.05000112	          0.05000162	          0.26797430	          0.57943367	          0.05000035	          0.05819508	          0.05819483	          0.26828272	          0.14470329	          0.15005488	          0.14466582	          0.21439394	          0.31361577	          0.09128706	          0.28347406	          0.14162108	          0.29248199	          0.17755109	          0.25836797	          0.18010961	          0.05819458	          0.21811300	          0.36424527	          0.06448519	          0.05819473	          0.05000003	          0.43261999	          0.07531791	          0.13586161	          0.05000007	          0.05000014	          0.05000030	          0.05000010	          0.05000009	          0.36965313	          0.05000003	          0.05512266	          0.08841461	          0.19586040	          0.36089189	          0.27579811	          0.27433061	          0.05000230	          0.05851070	          0.05360761	          0.14616969	          0.19933122	          0.23982033	          0.06773246	          0.06773228	          0.33992076	          0.07884936	          0.05000071	          0.05819483	          0.21161336	          0.21567141	          0.19023910	          0.08059509	          0.08694423	          0.10736766	          0.19222898	          0.09421216	          0.06773045	          0.21779739	          0.16470506	          0.05000002	          0.34591638	          0.70439648	          0.35212027	          0.05515712	          0.05990243	          0.09934200	
